<svg width="500" height="500" viewBox="0 0 500 500" fill="none" xmlns="http://www.w3.org/2000/svg">
<mask id="mask0_58_5" style="mask-type:luminance" maskUnits="userSpaceOnUse" x="150" y="348" width="200" height="20">
<path d="M150 348H350V368H150V348Z" fill="white"/>
</mask>
<g mask="url(#mask0_58_5)">
<path d="M332.896 358.87C332.49 358.349 332.042 357.87 331.563 357.432C330.745 356.698 329.823 356.083 328.849 355.625C324.495 352.229 319.547 349.151 310.87 349.151C300.885 349.151 295.833 353.234 290.948 357.182C286.031 361.161 281.396 364.906 271.901 364.906C262.401 364.906 257.766 361.151 252.854 357.182C247.969 353.234 242.922 349.151 232.932 349.151C222.948 349.151 217.896 353.234 213.01 357.182C208.099 361.161 203.458 364.906 193.964 364.906C184.615 364.906 179.979 361.271 175.146 357.365C174.896 357.146 174.641 356.948 174.38 356.745C169.661 352.932 164.62 349.141 154.995 349.141V350.516C161.562 350.516 165.818 352.312 169.432 354.74C166.526 354.401 163.458 355.307 161.224 357.182C160.432 357.844 159.75 358.62 159.089 359.365C158.786 359.703 158.474 360.063 158.151 360.401C157.385 361.203 156.219 362.323 154.776 362.76C153.599 363.12 151.911 363.203 151.073 362.25L150.109 361.151L150.276 362.609C150.521 364.797 152.245 366.792 154.563 367.573C156.557 368.24 158.896 368.057 161.141 367.052C162.87 366.281 164.5 365.099 166.432 363.203C166.661 362.974 166.891 362.745 167.13 362.516C168.318 361.333 169.531 360.104 171.026 359.38C172.286 358.771 173.958 358.583 175.229 359.188C179.776 362.818 184.792 366.281 193.979 366.281C203.964 366.281 209.016 362.193 213.901 358.245C218.818 354.271 223.453 350.526 232.948 350.526C239.609 350.526 243.88 352.375 247.536 354.849C247.359 354.812 247.177 354.781 247 354.755C244.057 354.37 240.948 355.286 238.672 357.193C237.88 357.854 237.203 358.63 236.536 359.375C236.234 359.714 235.922 360.068 235.599 360.406C234.839 361.214 233.667 362.333 232.224 362.771C231.047 363.13 229.359 363.214 228.526 362.26L227.557 361.161L227.724 362.615C227.974 364.807 229.693 366.802 232.01 367.583C234.01 368.25 236.344 368.068 238.589 367.057C240.318 366.292 241.948 365.109 243.88 363.214C244.109 362.984 244.339 362.755 244.578 362.526C245.766 361.344 246.984 360.115 248.474 359.391C250.094 358.604 252.385 358.531 253.646 359.896L253.854 359.724C258.234 363.146 263.193 366.281 271.938 366.281C281.922 366.281 286.974 362.193 291.859 358.245C296.771 354.271 301.406 350.526 310.906 350.526C317.427 350.526 321.661 352.292 325.266 354.693C322.526 354.516 319.703 355.427 317.604 357.193C316.813 357.854 316.13 358.63 315.469 359.375C315.167 359.714 314.854 360.068 314.531 360.406C313.766 361.214 312.599 362.333 311.151 362.771C309.974 363.13 308.292 363.214 307.453 362.26L306.49 361.161L306.651 362.615C306.901 364.807 308.62 366.802 310.943 367.583C312.938 368.25 315.276 368.068 317.521 367.057C319.25 366.292 320.88 365.109 322.813 363.214C323.042 362.984 323.271 362.755 323.51 362.526C324.698 361.344 325.911 360.115 327.401 359.391C328.417 358.906 329.682 358.688 330.807 358.922C335.443 362.651 340.469 366.281 349.891 366.281V364.906C341.703 364.906 337.13 362.156 332.896 358.87ZM160.755 366.208C158.714 367.115 156.615 367.286 154.839 366.693C154.073 366.438 153.385 366.026 152.813 365.51C152.219 364.979 151.755 364.328 151.469 363.625C152.224 363.938 153.099 363.99 153.938 363.88C154.177 364.12 154.427 364.339 154.682 364.542C155.021 364.797 155.391 365.036 155.766 365.234C156.521 365.651 157.349 365.943 158.198 366.099C159.052 366.245 159.927 366.245 160.781 366.104C160.875 366.089 160.969 366.078 161.057 366.063C160.958 366.115 160.854 366.161 160.755 366.208ZM165.771 362.552C164.583 363.714 163.526 364.594 162.484 365.266C162.385 365.271 162.292 365.281 162.193 365.292L161.88 365.318C161.464 365.344 161.057 365.365 160.661 365.354C159.87 365.354 159.12 365.292 158.365 365.156C157.62 365.016 156.87 364.823 156.125 364.557C155.75 364.432 155.375 364.281 154.995 364.12L154.703 364C154.599 363.953 154.505 363.917 154.406 363.87C154.37 363.854 154.333 363.833 154.297 363.818C154.552 363.771 154.802 363.708 155.031 363.635C156.109 363.302 157.036 362.661 157.781 362.021L157.958 362.12L158.5 362.385L159.063 362.609L159.641 362.792C160.422 363.01 161.224 363.141 162.036 363.167C162.844 363.182 163.656 363.094 164.443 362.911L165.036 362.755L165.604 362.563L165.823 362.469C165.807 362.505 165.786 362.531 165.771 362.552ZM166.453 361.865C166.396 361.922 166.349 361.964 166.297 362.021C165.589 362.094 164.932 362.177 164.286 362.214C163.536 362.266 162.797 362.286 162.063 362.266C161.328 362.25 160.589 362.193 159.844 362.104C159.75 362.083 159.661 362.078 159.557 362.068C159.469 362.057 159.365 362.042 159.276 362.031C159.089 361.995 158.896 361.964 158.693 361.948C158.5 361.911 158.307 361.875 158.094 361.854C158.068 361.849 158.031 361.849 157.995 361.839C158.297 361.563 158.568 361.286 158.797 361.042C159.125 360.693 159.438 360.333 159.75 359.99C160.396 359.266 161.057 358.521 161.797 357.896C161.917 357.797 162.036 357.708 162.161 357.604L162.266 357.667L162.828 357.964L163.406 358.219L163.995 358.438C164.797 358.714 165.625 358.896 166.458 358.99C167.297 359.073 168.151 359.063 168.99 358.964L169.615 358.87L170.234 358.74L170.25 358.734C168.786 359.531 167.599 360.708 166.453 361.865ZM171.307 358.266C170.453 358.245 169.682 358.266 168.917 358.24C168.125 358.219 167.344 358.161 166.573 358.083C165.797 358 165.026 357.891 164.245 357.745C164.151 357.724 164.047 357.708 163.948 357.688C163.849 357.667 163.755 357.651 163.656 357.63C163.458 357.589 163.26 357.552 163.057 357.516C162.865 357.469 162.667 357.432 162.469 357.396C164.464 355.995 167.005 355.349 169.422 355.672C170.094 355.766 170.755 355.927 171.411 356.167C172.156 356.724 172.88 357.313 173.609 357.896C172.818 357.88 172.026 358.016 171.307 358.266ZM238.188 366.208C236.141 367.115 234.047 367.286 232.271 366.693C231.505 366.438 230.813 366.026 230.245 365.51C229.646 364.979 229.188 364.328 228.901 363.625C229.656 363.938 230.531 363.99 231.365 363.88C231.604 364.12 231.854 364.339 232.115 364.542C232.453 364.797 232.823 365.036 233.198 365.234C233.953 365.651 234.781 365.943 235.625 366.099C236.484 366.245 237.359 366.245 238.214 366.104C238.307 366.089 238.396 366.078 238.49 366.063C238.385 366.115 238.286 366.161 238.188 366.208ZM243.198 362.552C242.016 363.714 240.953 364.594 239.917 365.266C239.813 365.271 239.724 365.281 239.62 365.292L239.307 365.318C238.896 365.344 238.49 365.365 238.094 365.354C237.302 365.354 236.547 365.292 235.792 365.156C235.047 365.016 234.302 364.823 233.557 364.557C233.182 364.432 232.802 364.281 232.427 364.12L232.13 364C232.031 363.953 231.938 363.917 231.839 363.87C231.802 363.854 231.76 363.833 231.724 363.818C231.984 363.771 232.234 363.708 232.464 363.635C233.536 363.302 234.469 362.661 235.214 362.021L235.391 362.12L235.932 362.385L236.495 362.609L237.073 362.792C237.854 363.01 238.656 363.141 239.464 363.167C240.276 363.182 241.083 363.094 241.875 362.911L242.464 362.755L243.036 362.563L243.255 362.469C243.245 362.505 243.229 362.531 243.198 362.552ZM243.891 361.865C243.833 361.922 243.786 361.964 243.734 362.021C243.026 362.094 242.37 362.177 241.729 362.214C240.974 362.266 240.24 362.286 239.5 362.266C238.766 362.25 238.031 362.193 237.281 362.104C237.193 362.083 237.099 362.078 237 362.068C236.906 362.057 236.807 362.042 236.714 362.031C236.531 361.995 236.333 361.964 236.135 361.948C235.943 361.911 235.745 361.875 235.536 361.854C235.505 361.849 235.469 361.849 235.432 361.839C235.74 361.563 236.005 361.286 236.234 361.042C236.568 360.693 236.88 360.333 237.193 359.99C237.833 359.266 238.5 358.521 239.234 357.896C239.354 357.797 239.474 357.708 239.604 357.604L239.703 357.667L240.266 357.964L240.844 358.219L241.432 358.438C242.234 358.714 243.063 358.896 243.901 358.99C244.734 359.073 245.594 359.063 246.432 358.964L247.057 358.87L247.672 358.74L247.693 358.734C246.229 359.531 245.042 360.708 243.891 361.865ZM248.74 358.266C247.885 358.245 247.109 358.266 246.349 358.24C245.557 358.219 244.776 358.161 244 358.083C243.229 358 242.453 357.891 241.672 357.745C241.578 357.724 241.479 357.708 241.38 357.688C241.276 357.667 241.188 357.651 241.083 357.63C240.891 357.589 240.688 357.552 240.484 357.516C240.292 357.469 240.099 357.432 239.896 357.396C241.896 355.995 244.432 355.349 246.854 355.672C247.969 355.818 249.063 356.187 250.083 356.745C250.589 357.135 251.094 357.542 251.594 357.953C250.635 357.818 249.63 357.964 248.74 358.266ZM317.099 366.208C315.052 367.115 312.958 367.286 311.182 366.693C310.417 366.438 309.724 366.026 309.156 365.51C308.557 364.979 308.099 364.328 307.813 363.625C308.568 363.938 309.443 363.99 310.276 363.88C310.516 364.12 310.766 364.339 311.026 364.542C311.365 364.797 311.734 365.036 312.109 365.234C312.865 365.651 313.693 365.943 314.536 366.099C315.396 366.245 316.271 366.245 317.125 366.104C317.219 366.089 317.307 366.078 317.401 366.063C317.297 366.115 317.198 366.161 317.099 366.208ZM322.109 362.552C320.927 363.714 319.865 364.594 318.828 365.266C318.724 365.271 318.635 365.281 318.531 365.292L318.219 365.318C317.807 365.344 317.401 365.365 317.005 365.354C316.214 365.354 315.458 365.292 314.703 365.156C313.958 365.016 313.214 364.823 312.469 364.557C312.094 364.432 311.714 364.281 311.339 364.12L311.042 364C310.943 363.953 310.849 363.917 310.75 363.87C310.714 363.854 310.672 363.833 310.635 363.818C310.896 363.771 311.146 363.708 311.375 363.635C312.448 363.302 313.38 362.661 314.125 362.021L314.302 362.12L314.844 362.385L315.406 362.609L315.984 362.792C316.766 363.01 317.568 363.141 318.375 363.167C319.188 363.182 319.995 363.094 320.786 362.911L321.375 362.755L321.948 362.563L322.167 362.469C322.156 362.505 322.141 362.531 322.109 362.552ZM322.802 361.865C322.745 361.922 322.703 361.964 322.646 362.021C321.938 362.094 321.281 362.177 320.641 362.214C319.885 362.266 319.151 362.286 318.411 362.266C317.677 362.25 316.943 362.193 316.193 362.104C316.104 362.083 316.01 362.078 315.911 362.068C315.818 362.057 315.719 362.042 315.625 362.031C315.443 361.995 315.25 361.964 315.047 361.948C314.854 361.911 314.656 361.875 314.448 361.854C314.417 361.849 314.38 361.849 314.344 361.839C314.651 361.563 314.917 361.286 315.146 361.042C315.479 360.693 315.792 360.333 316.104 359.99C316.745 359.266 317.411 358.521 318.146 357.896C318.266 357.797 318.385 357.708 318.516 357.604L318.615 357.667L319.177 357.964L319.755 358.219L320.344 358.438C321.146 358.714 321.974 358.896 322.813 358.99C323.646 359.073 324.505 359.063 325.344 358.964L325.969 358.87L326.583 358.74L326.604 358.734C325.141 359.531 323.953 360.708 322.802 361.865ZM327.651 358.266C326.797 358.245 326.021 358.266 325.26 358.24C324.469 358.219 323.688 358.161 322.911 358.083C322.141 358 321.365 357.891 320.583 357.745C320.495 357.724 320.391 357.708 320.292 357.688C320.188 357.667 320.099 357.651 319.995 357.63C319.802 357.589 319.599 357.552 319.396 357.516C319.203 357.469 319.01 357.432 318.807 357.396C320.807 355.995 323.344 355.349 325.766 355.672C326.161 355.729 326.547 355.802 326.932 355.911C327.797 356.562 328.646 357.229 329.49 357.917C328.854 357.938 328.229 358.062 327.651 358.266Z" fill="#D19A40"/>
</g>
<path d="M182.755 355.792C182.922 355.781 183.089 355.781 183.245 355.781C183.255 355.781 183.26 355.781 183.271 355.781C184.359 355.781 185.396 356.109 186.198 356.698C187.005 357.292 187.375 358.109 187.818 359.198L188.333 360.474L189.052 359.307C189.703 358.245 189.573 356.599 189.25 355.406C188.49 352.656 185.901 350.615 183.089 350.552C181.818 350.526 180.729 350.906 180.031 351.651C179.193 352.536 178.964 354.135 179.948 355.094C180.74 355.865 181.865 355.828 182.755 355.792ZM181.036 352.583C181.448 352.146 182.188 351.896 183.052 351.917C185.229 351.969 187.318 353.62 187.917 355.766C188 356.057 188.068 356.375 188.104 356.698C187.818 356.302 187.474 355.927 187.026 355.589C185.984 354.818 184.661 354.401 183.271 354.401C183.26 354.401 183.255 354.401 183.245 354.401C183.068 354.401 182.896 354.406 182.719 354.406C181.984 354.438 181.292 354.453 180.917 354.099C180.531 353.729 180.667 352.979 181.036 352.583Z" fill="#D19A40"/>
<path d="M196.688 358.776L197.406 359.943L197.922 358.667C198.36 357.578 198.74 356.76 199.542 356.167C200.339 355.573 201.38 355.25 202.464 355.25C202.474 355.25 202.485 355.25 202.495 355.25C202.651 355.25 202.807 355.26 202.979 355.26C203.88 355.286 205.005 355.333 205.797 354.552C206.781 353.594 206.552 352 205.714 351.109C205.016 350.37 203.938 349.984 202.656 350.01C199.854 350.073 197.255 352.12 196.495 354.865C196.162 356.068 196.042 357.714 196.688 358.776ZM197.828 355.24C198.427 353.099 200.516 351.448 202.698 351.396C202.735 351.396 202.761 351.396 202.797 351.396C203.615 351.396 204.307 351.63 204.709 352.063C205.089 352.458 205.219 353.208 204.828 353.583C204.464 353.948 203.761 353.922 203.026 353.896C202.854 353.885 202.677 353.885 202.5 353.885C202.495 353.885 202.485 353.885 202.464 353.885C201.084 353.885 199.75 354.307 198.714 355.078C198.261 355.406 197.922 355.781 197.636 356.188C197.682 355.854 197.745 355.536 197.828 355.24Z" fill="#D19A40"/>
<mask id="mask1_58_5" style="mask-type:luminance" maskUnits="userSpaceOnUse" x="188" y="341" width="11" height="19">
<path d="M188 341.417H198.667V360H188V341.417Z" fill="white"/>
</mask>
<g mask="url(#mask1_58_5)">
<path d="M190.854 356.641C190.984 356.901 191.12 357.156 191.25 357.411C191.297 357.505 191.339 357.594 191.38 357.677C191.599 358.146 191.849 358.667 192.438 358.724C192.464 358.724 192.49 358.724 192.521 358.724C193.073 358.724 193.412 358.24 193.542 358.047C193.901 357.542 194.193 356.984 194.469 356.453C194.552 356.297 194.635 356.141 194.719 355.995C195.62 354.333 196.234 352.922 196.662 351.578C197.193 349.844 198.646 344.047 194.766 342.214C193.078 341.417 190.854 342.078 189.583 343.745C188.625 345 188.177 346.703 188.24 348.818C188.323 351.687 189.609 354.208 190.854 356.641ZM190.677 344.578C191.443 343.578 192.958 342.885 194.177 343.453C195.271 343.964 195.875 345.062 195.99 346.703C196.099 348.427 195.63 350.24 195.344 351.167C194.948 352.427 194.37 353.755 193.51 355.333C193.427 355.49 193.349 355.656 193.255 355.807C193.042 356.214 192.823 356.625 192.583 357C192.547 356.927 192.521 356.865 192.484 356.792C192.354 356.531 192.214 356.276 192.089 356.01C190.906 353.714 189.693 351.328 189.609 348.776C189.563 346.99 189.922 345.578 190.677 344.578Z" fill="#D19A40"/>
</g>
<path d="M260.667 355.792C260.828 355.781 260.995 355.781 261.151 355.781C261.162 355.781 261.172 355.781 261.182 355.781C262.266 355.781 263.307 356.109 264.104 356.698C264.917 357.292 265.281 358.109 265.724 359.198L266.24 360.474L266.959 359.307C267.61 358.245 267.485 356.599 267.162 355.406C266.396 352.656 263.813 350.615 260.995 350.552C259.724 350.526 258.641 350.906 257.943 351.651C257.104 352.536 256.875 354.135 257.86 355.094C258.641 355.865 259.761 355.828 260.667 355.792ZM258.932 352.583C259.349 352.146 260.084 351.896 260.948 351.917C263.13 351.969 265.219 353.62 265.818 355.766C265.901 356.057 265.964 356.375 266 356.698C265.714 356.302 265.375 355.927 264.927 355.589C263.886 354.818 262.563 354.401 261.172 354.401C261.162 354.401 261.151 354.401 261.141 354.401C260.969 354.401 260.792 354.406 260.62 354.406C259.88 354.438 259.193 354.453 258.813 354.099C258.427 353.729 258.568 352.979 258.932 352.583Z" fill="#D19A40"/>
<path d="M274.594 358.776L275.313 359.943L275.828 358.667C276.271 357.578 276.646 356.76 277.448 356.167C278.25 355.573 279.287 355.25 280.375 355.25C280.386 355.25 280.391 355.25 280.401 355.25C280.557 355.25 280.714 355.26 280.891 355.26C281.792 355.286 282.912 355.333 283.703 354.552C284.688 353.594 284.459 352 283.62 351.109C282.922 350.37 281.844 349.984 280.568 350.01C277.761 350.073 275.167 352.12 274.401 354.865C274.063 356.068 273.943 357.714 274.594 358.776ZM275.729 355.24C276.323 353.099 278.412 351.448 280.594 351.396C280.63 351.396 280.662 351.396 280.698 351.396C281.516 351.396 282.203 351.63 282.61 352.063C282.99 352.458 283.115 353.208 282.729 353.583C282.36 353.948 281.662 353.922 280.927 353.896C280.75 353.885 280.578 353.885 280.401 353.885C280.391 353.885 280.386 353.885 280.365 353.885C278.985 353.885 277.651 354.307 276.61 355.078C276.162 355.406 275.818 355.781 275.537 356.188C275.578 355.854 275.646 355.536 275.729 355.24Z" fill="#D19A40"/>
<mask id="mask2_58_5" style="mask-type:luminance" maskUnits="userSpaceOnUse" x="265" y="341" width="12" height="19">
<path d="M265.333 341.417H276V360H265.333V341.417Z" fill="white"/>
</mask>
<g mask="url(#mask2_58_5)">
<path d="M268.761 356.641C268.891 356.901 269.026 357.156 269.156 357.411C269.203 357.505 269.25 357.594 269.287 357.677C269.505 358.146 269.755 358.667 270.344 358.724C270.37 358.724 270.401 358.724 270.427 358.724C270.979 358.724 271.318 358.24 271.448 358.047C271.807 357.542 272.104 356.984 272.38 356.453C272.458 356.297 272.542 356.141 272.625 355.995C273.526 354.333 274.146 352.922 274.568 351.578C275.099 349.844 276.557 344.047 272.672 342.214C270.99 341.417 268.761 342.078 267.49 343.745C266.537 345 266.083 346.703 266.151 348.818C266.224 351.687 267.511 354.208 268.761 356.641ZM268.578 344.578C269.344 343.578 270.859 342.885 272.073 343.453C273.167 343.964 273.776 345.062 273.886 346.703C273.995 348.427 273.526 350.24 273.245 351.167C272.849 352.427 272.266 353.755 271.412 355.333C271.328 355.49 271.245 355.656 271.156 355.807C270.943 356.214 270.724 356.625 270.484 357C270.448 356.927 270.417 356.865 270.38 356.792C270.25 356.531 270.115 356.276 269.984 356.01C268.807 353.714 267.594 351.328 267.511 348.776C267.464 346.99 267.823 345.578 268.578 344.578Z" fill="#D19A40"/>
</g>
<mask id="mask3_58_5" style="mask-type:luminance" maskUnits="userSpaceOnUse" x="189" y="368" width="6" height="6">
<path d="M189.333 368H194.667V373.417H189.333V368Z" fill="white"/>
</mask>
<g mask="url(#mask3_58_5)">
<path d="M192.354 368.875C191.094 368.865 190.073 369.87 190.063 371.125C190.052 372.38 191.063 373.401 192.323 373.406C193.589 373.417 194.609 372.411 194.615 371.156C194.625 369.901 193.615 368.88 192.354 368.875Z" fill="#D19A40"/>
</g>
<path d="M197.25 368.031C196.625 368.031 196.11 368.536 196.099 369.156C196.099 369.781 196.604 370.292 197.229 370.302C197.854 370.302 198.37 369.797 198.38 369.177C198.391 368.542 197.886 368.031 197.25 368.031Z" fill="#D19A40"/>
<path d="M188.094 367.901C187.469 367.901 186.953 368.406 186.943 369.031C186.932 369.651 187.448 370.167 188.073 370.172C188.698 370.172 189.214 369.672 189.224 369.047C189.224 368.417 188.719 367.901 188.094 367.901Z" fill="#D19A40"/>
<mask id="mask4_58_5" style="mask-type:luminance" maskUnits="userSpaceOnUse" x="268" y="368" width="7" height="6">
<path d="M268 368H274.667V373.417H268V368Z" fill="white"/>
</mask>
<g mask="url(#mask4_58_5)">
<path d="M271.292 368.875C270.031 368.865 269.01 369.87 269 371.125C268.99 372.38 270.005 373.401 271.266 373.406C272.526 373.417 273.547 372.411 273.557 371.156C273.563 369.901 272.552 368.88 271.292 368.875Z" fill="#D19A40"/>
</g>
<path d="M276.188 368.031C275.563 368.031 275.047 368.536 275.037 369.156C275.037 369.781 275.542 370.292 276.167 370.302C276.797 370.302 277.307 369.797 277.318 369.177C277.328 368.542 276.823 368.031 276.188 368.031Z" fill="#D19A40"/>
<path d="M267.031 367.901C266.406 367.901 265.891 368.406 265.88 369.031C265.875 369.651 266.386 370.167 267.016 370.172C267.641 370.172 268.156 369.672 268.162 369.047C268.162 368.417 267.656 367.901 267.031 367.901Z" fill="#D19A40"/>
<path d="M144.104 166.417C144.188 166.099 144.76 165.844 145.833 165.646C146.917 165.437 148.021 165.333 149.146 165.333C150.188 165.333 151.104 165.437 151.896 165.646C152.698 165.844 153.104 166.141 153.104 166.542C153.104 166.865 152.964 167.906 152.688 169.667C152.406 171.432 152.068 173.635 151.667 176.271C154.302 174.104 157.125 172.161 160.125 170.437C163.125 168.719 166.344 167.219 169.792 165.937H170.75C171.625 165.937 172.901 166.099 174.583 166.417C176.26 166.74 178 167.437 179.792 168.521C181.594 169.604 183.135 171.307 184.417 173.625C185.708 175.948 186.354 179.104 186.354 183.104C186.354 184.703 186.229 186.542 185.979 188.625C185.823 189.5 185.505 191.021 185.021 193.187C184.547 195.344 183.771 197.74 182.688 200.375C181.604 203.016 180.063 205.599 178.063 208.125C176.063 210.641 173.5 212.703 170.375 214.312C167.26 215.911 163.385 216.708 158.75 216.708C155.385 216.708 151.667 216.187 147.583 215.146C146.776 214.979 146.276 214.557 146.083 213.875C145.885 213.198 145.792 212.854 145.792 212.854C145.792 212.854 146.589 213.141 148.188 213.708C149.781 214.266 151.781 214.542 154.188 214.542C158.104 214.542 161.88 213.286 165.521 210.771C169.156 208.245 172.156 204.406 174.521 199.25C176.88 194.083 178.063 187.5 178.063 179.5C178.063 174.781 177.276 171.703 175.708 170.271C174.151 168.828 172.339 168.104 170.271 168.104C168.422 168.104 165.734 169.187 162.208 171.354C158.693 173.51 154.979 176.385 151.063 179.979C150.505 183.26 149.844 186.865 149.083 190.792C148.318 194.708 147.531 198.625 146.729 202.542C145.938 206.458 145.094 210.141 144.208 213.583C143.333 217.031 142.458 219.911 141.583 222.229C140.458 225.187 139.151 228.271 137.667 231.479C136.193 234.677 134.573 237.677 132.813 240.479C131.063 243.271 129.219 245.531 127.292 247.25C125.375 248.974 123.458 249.833 121.542 249.833C120.344 249.833 119.432 249.417 118.792 248.583C118.156 247.74 117.74 246.74 117.542 245.583C117.333 244.417 117.229 243.391 117.229 242.5C117.229 241.948 117.25 241.49 117.292 241.125C117.333 240.766 117.354 240.583 117.354 240.583C117.354 240.583 117.557 239.531 117.958 237.417C118.349 235.292 119.042 232.453 120.042 228.896C121.042 225.328 122.401 221.286 124.125 216.771C125.844 212.245 127.964 207.583 130.479 202.792C133.005 197.99 136.026 193.307 139.542 188.75C140.5 184.5 141.359 180.458 142.125 176.625C142.885 172.781 143.547 169.375 144.104 166.417ZM121.063 246.937C121.865 246.937 122.948 245.385 124.313 242.271C125.672 239.146 127.151 235.01 128.75 229.854C130.344 224.687 131.984 218.99 133.667 212.75C135.344 206.5 136.906 200.26 138.354 194.021C135.464 198.021 132.839 202.469 130.479 207.354C128.115 212.229 126.094 217.094 124.417 221.937C122.734 226.771 121.458 231.115 120.583 234.958C119.708 238.792 119.271 241.625 119.271 243.458C119.271 245.781 119.865 246.937 121.063 246.937Z" fill="white"/>
<path d="M212.374 239.5C212.374 239.5 212.65 239.604 213.207 239.812C213.775 240.01 214.062 240.182 214.062 240.333V240.458C211.338 243.099 208.999 245.021 207.041 246.229C205.082 247.427 203.421 248.161 202.062 248.437C200.697 248.719 199.541 248.854 198.582 248.854C197.135 248.854 195.51 248.62 193.707 248.146C191.916 247.661 190.176 246.76 188.499 245.437C186.817 244.12 185.437 242.141 184.353 239.5C183.27 236.865 182.728 233.385 182.728 229.062C182.728 226.021 183.228 223 184.228 220C185.228 217 186.588 214.307 188.312 211.917C190.03 209.516 191.989 207.594 194.187 206.146C196.395 204.703 198.697 203.979 201.103 203.979C202.697 203.979 203.999 204.562 204.999 205.729C205.999 206.885 206.499 208.302 206.499 209.979C206.499 212.62 205.233 215.682 202.707 219.167C200.192 222.641 196.572 225.62 191.853 228.104C192.02 230.594 192.478 233.271 193.228 236.146C193.989 239.021 194.916 241.458 195.999 243.458C197.082 245.458 198.176 246.458 199.291 246.458C201.608 245.99 203.749 245.187 205.707 244.062C207.676 242.937 209.28 241.896 210.52 240.937C211.754 239.979 212.374 239.5 212.374 239.5ZM198.687 206.146C196.53 207.104 194.796 209.307 193.478 212.75C192.155 216.182 191.499 220.141 191.499 224.625V226.187C195.499 223.552 198.416 221.052 200.249 218.687C202.093 216.328 203.254 214.328 203.728 212.687C204.213 211.052 204.457 209.99 204.457 209.5C204.374 209.099 204.15 208.365 203.791 207.292C203.426 206.208 202.489 205.667 200.978 205.667C200.338 205.667 199.572 205.828 198.687 206.146Z" fill="white"/>
<path d="M216.219 225.333L222.928 220.792C222.605 219.99 222.365 219.187 222.199 218.396C222.042 217.594 221.969 216.708 221.969 215.75C221.969 213.182 222.49 211.12 223.532 209.562C224.574 208.01 225.85 206.812 227.365 205.979C228.891 205.135 230.35 204.552 231.74 204.229C233.141 203.911 234.162 203.75 234.803 203.75C236.162 203.75 237.121 204.156 237.678 204.958C238.246 205.75 238.532 206.667 238.532 207.708C238.532 209.141 237.73 210.74 236.136 212.5C234.537 214.266 232.699 216.062 230.615 217.896C231.574 219.021 232.808 220.469 234.324 222.229C235.85 223.979 237.23 225.896 238.469 227.979C239.704 230.062 240.324 232.224 240.324 234.458C240.324 235.667 240.001 236.99 239.365 238.417C237.85 241.625 236.147 243.974 234.261 245.458C232.386 246.932 230.407 247.891 228.324 248.333C226.251 248.766 224.136 248.979 221.969 248.979C218.772 248.979 216.251 247.958 214.407 245.917C212.574 243.875 211.657 241.854 211.657 239.854C211.657 237.937 211.938 236.458 212.49 235.417C213.048 234.375 213.568 233.854 214.053 233.854C214.772 233.854 215.496 233.958 216.219 234.167C216.938 234.365 217.303 235.099 217.303 236.375C217.303 237.583 216.959 238.49 216.282 239.083C215.6 239.682 215.261 240.5 215.261 241.542C215.261 242.74 215.699 243.76 216.574 244.604C217.449 245.437 218.449 246.099 219.574 246.583C220.699 247.073 221.615 247.312 222.324 247.312C223.292 247.312 224.6 247.156 226.24 246.833C227.876 246.5 229.376 245.719 230.74 244.479C232.1 243.245 232.782 241.224 232.782 238.417C232.782 236.349 232.261 234.495 231.219 232.854C230.178 231.203 228.954 229.599 227.553 228.042C226.147 226.49 224.928 224.786 223.886 222.937C222.053 224.146 220.475 225.135 219.157 225.896C217.834 226.646 217.094 227.021 216.928 227.021C216.772 227.021 216.574 226.885 216.324 226.604C216.084 226.328 215.969 226.073 215.969 225.833C215.969 225.667 216.053 225.5 216.219 225.333ZM233.615 205.667C232.016 205.667 230.876 206.531 230.199 208.25C229.516 209.974 229.178 211.667 229.178 213.333C229.178 213.823 229.199 214.266 229.24 214.667C229.282 215.073 229.334 215.469 229.407 215.854C232.683 213.302 234.662 211.5 235.344 210.458C236.022 209.417 236.365 208.661 236.365 208.187C236.365 207.552 236.246 206.974 236.011 206.458C235.772 205.932 234.975 205.667 233.615 205.667Z" fill="white"/>
<path d="M263.016 204.333C263.891 204.016 264.891 203.854 266.016 203.854C268.016 203.854 269.891 204.281 271.641 205.125C273.402 205.958 274.839 207.578 275.954 209.979C277.079 212.385 277.641 215.99 277.641 220.792C277.641 221.823 277.599 222.979 277.516 224.271C277.443 225.552 277.329 226.87 277.162 228.229C277.162 228.469 277 229.328 276.683 230.812C276.36 232.286 275.86 234.042 275.183 236.083C274.5 238.125 273.542 240.146 272.308 242.146C271.068 244.146 269.506 245.807 267.62 247.125C265.745 248.448 263.485 249.104 260.849 249.104C259.485 249.104 258.021 248.786 256.454 248.146C254.896 247.51 253.396 246.328 251.954 244.604C250.521 242.885 249.209 240.344 248.016 236.979C246.891 233.786 246.329 230.828 246.329 228.104C246.329 224.344 247.125 220.865 248.724 217.667C250.318 214.458 252.396 211.698 254.954 209.375C257.521 207.057 260.209 205.375 263.016 204.333ZM264.808 245.979C266.402 245.427 267.797 244.328 268.995 242.687C270.204 241.052 271.204 239.187 271.995 237.104C272.797 235.021 273.438 233.062 273.912 231.229C274.396 229.385 274.724 228.021 274.891 227.146L274.766 227.021C274.766 227.021 274.881 226.427 275.12 225.229C275.37 224.021 275.495 222.5 275.495 220.667C275.495 219.542 275.37 218.141 275.12 216.458C274.881 214.781 274.443 213.12 273.808 211.479C273.167 209.844 272.209 208.49 270.933 207.417C269.652 206.333 267.933 205.792 265.766 205.792C264 205.792 262.36 206.719 260.849 208.562C259.334 210.396 258.131 212.854 257.245 215.937C256.37 219.01 255.933 222.427 255.933 226.187C255.933 229.062 256.287 232.042 256.995 235.125C257.714 238.208 258.672 240.833 259.87 243C261.079 245.156 262.318 246.229 263.599 246.229C264.084 246.229 264.485 246.146 264.808 245.979Z" fill="white"/>
<path d="M285.807 204.833C286.124 204.5 286.765 204.26 287.723 204.104C288.682 203.937 289.682 203.854 290.723 203.854C291.598 203.854 292.437 203.937 293.244 204.104C294.046 204.26 294.609 204.5 294.932 204.833C295.083 204.99 295.202 205.865 295.286 207.458C295.369 209.057 295.411 211.099 295.411 213.583C295.411 215.349 295.411 217.25 295.411 219.292C295.411 221.323 295.327 223.375 295.161 225.458C295.879 223.141 296.765 220.724 297.807 218.208C298.848 215.682 299.984 213.323 301.223 211.125C302.458 208.932 303.796 207.156 305.244 205.792C306.687 204.432 308.208 203.75 309.807 203.75C312.359 203.75 314.254 204.729 315.494 206.687C316.744 208.646 317.603 210.786 318.077 213.104C318.478 214.87 318.838 217.177 319.161 220.021C319.478 222.854 319.775 225.812 320.057 228.896C320.348 231.969 320.65 234.885 320.973 237.646C321.291 240.411 321.624 242.656 321.973 244.375C322.333 246.083 322.754 246.937 323.244 246.937C324.437 246.937 325.609 246.521 326.765 245.687C327.932 244.844 328.973 243.844 329.89 242.687C330.817 241.521 331.562 240.521 332.119 239.687C332.687 238.844 332.973 238.417 332.973 238.417C332.973 238.417 333.187 238.479 333.619 238.604C334.062 238.729 334.286 238.99 334.286 239.375C334.286 239.865 333.744 240.891 332.661 242.458C331.577 244.016 330.129 245.495 328.327 246.896C326.536 248.286 324.562 248.979 322.411 248.979C319.202 248.979 316.754 247.958 315.077 245.917C313.395 243.875 312.213 241.344 311.536 238.312C310.853 235.271 310.395 232.307 310.161 229.417C309.603 223.031 309.004 217.75 308.369 213.583C307.728 209.417 307.088 207.333 306.452 207.333C305.879 207.333 305.119 208.177 304.161 209.854C303.202 211.536 302.161 213.703 301.036 216.354C299.921 218.995 298.807 221.833 297.682 224.875C296.557 227.906 295.515 230.74 294.557 233.375C294.234 237.057 293.812 240.323 293.286 243.167C292.77 246 292.161 247.74 291.452 248.375C291.129 248.698 290.504 248.896 289.577 248.979C288.661 249.062 287.723 249.104 286.765 249.104C285.958 249.104 285.234 249.083 284.598 249.042C283.958 249 283.64 248.979 283.64 248.979L285.807 204.833Z" fill="white"/>
<path d="M374.607 206.625C374.607 207.266 374.383 208.542 373.94 210.458C373.492 212.375 372.93 214.62 372.253 217.187C371.57 219.745 370.888 222.307 370.211 224.875C369.529 227.432 368.909 229.708 368.357 231.708C367.799 233.708 367.44 235.146 367.273 236.021C367.19 236.344 367.148 236.703 367.148 237.104C367.148 237.51 367.148 237.948 367.148 238.417C367.148 240.182 367.346 242.031 367.753 243.958C368.154 245.875 368.95 246.833 370.148 246.833C371.357 246.833 372.492 246.432 373.565 245.625C374.648 244.823 375.607 243.917 376.44 242.917C377.284 241.917 377.945 241.021 378.419 240.229C378.904 239.427 379.148 239.021 379.148 239.021C379.148 239.021 379.346 239.125 379.753 239.333C380.154 239.531 380.357 239.745 380.357 239.979C380.357 240.385 379.898 241.328 378.982 242.812C378.065 244.286 376.763 245.682 375.086 247C373.404 248.323 371.44 248.979 369.19 248.979C365.273 248.979 362.513 247.604 360.919 244.854C359.32 242.094 358.523 238.948 358.523 235.417C358.523 235.031 358.523 234.635 358.523 234.229C358.523 233.828 358.555 233.469 358.628 233.146C356.471 235.786 354.096 238.307 351.503 240.708C348.904 243.115 346.362 245.094 343.878 246.646C341.388 248.203 339.305 248.979 337.628 248.979C336.112 248.979 334.898 248.604 333.982 247.854C333.065 247.094 332.383 246.208 331.94 245.208C331.497 244.208 331.221 243.328 331.107 242.562C330.982 241.802 330.919 241.417 330.919 241.417C330.919 241.417 330.878 241.182 330.794 240.708C330.711 240.224 330.669 239.583 330.669 238.792C330.669 237.031 331.055 234.531 331.815 231.292C332.575 228.042 334.32 224.458 337.044 220.542C339.596 216.865 342.357 213.786 345.315 211.312C348.273 208.828 351.112 206.948 353.836 205.667C356.555 204.391 358.836 203.75 360.669 203.75C361.878 203.75 362.857 204.031 363.607 204.583C364.367 205.141 364.95 205.781 365.357 206.5C365.591 205.708 365.784 205.115 365.94 204.708C366.107 204.307 366.487 204.052 367.086 203.937C367.695 203.812 368.841 203.75 370.523 203.75C371.565 203.75 372.503 203.953 373.336 204.354C374.18 204.745 374.607 205.5 374.607 206.625ZM343.878 243.458C344.919 243.458 346.133 242.885 347.523 241.729C348.924 240.562 350.383 239.104 351.898 237.354C353.424 235.594 354.867 233.812 356.232 232.021C357.591 230.219 358.716 228.667 359.607 227.375L363.565 212.75C363.565 212.182 363.638 211.542 363.794 210.833C363.961 210.115 364.044 209.432 364.044 208.792C364.044 208.073 363.82 207.453 363.378 206.937C362.93 206.411 361.992 206.146 360.565 206.146C358.482 206.146 356.237 206.891 353.836 208.375C351.43 209.849 349.232 211.687 347.232 213.896C345.232 216.094 343.711 218.307 342.669 220.542C341.305 223.667 340.367 226.833 339.857 230.042C339.341 233.24 339.086 235.667 339.086 237.333C339.086 238.948 339.424 240.37 340.107 241.604C340.784 242.844 342.044 243.458 343.878 243.458Z" fill="white"/>
<path d="M191.328 265.876C191.422 265.709 191.755 265.573 192.328 265.459C192.912 265.349 193.537 265.292 194.203 265.292C194.787 265.292 195.287 265.349 195.703 265.459C196.12 265.573 196.328 265.74 196.328 265.959C196.328 266.126 196.234 266.579 196.057 267.313C195.891 268.053 195.646 268.995 195.328 270.146C196.271 269.62 197.297 269.079 198.412 268.521C199.521 267.969 200.714 267.688 201.995 267.688C202.755 267.688 203.604 267.876 204.537 268.251C205.464 268.626 206.266 269.386 206.932 270.521C207.599 271.646 207.932 273.391 207.932 275.751C207.932 276.417 207.745 277.438 207.37 278.813C206.995 280.188 206.359 281.657 205.474 283.209C204.583 284.766 203.313 286.146 201.662 287.355C202.646 287.48 203.604 287.834 204.537 288.417C205.464 289.001 206.25 289.948 206.891 291.251C207.542 292.558 207.87 294.37 207.87 296.688C207.87 299.704 207.297 302.209 206.162 304.209C205.037 306.209 203.609 307.803 201.891 308.98C200.182 310.162 198.474 310.995 196.766 311.48C195.057 311.969 193.625 312.209 192.474 312.209C190.917 312.209 189.807 311.907 189.141 311.292C188.474 310.667 188.068 310.016 187.932 309.334C187.807 308.641 187.745 308.204 187.745 308.021C187.745 307.662 187.797 307.219 187.912 306.688C188.021 306.146 188.245 305.683 188.578 305.292C188.912 304.891 189.432 304.688 190.141 304.688C190.542 304.688 190.953 304.813 191.37 305.063C191.787 305.303 191.995 305.709 191.995 306.292C191.995 307.001 191.792 307.573 191.391 308.001C191 308.417 190.807 308.959 190.807 309.626C190.807 310.558 191.162 311.042 191.87 311.084H192.266C193.292 311.084 194.38 310.698 195.537 309.917C196.688 309.141 197.787 308.063 198.828 306.688C199.88 305.313 200.745 303.719 201.412 301.896C202.078 300.063 202.412 298.105 202.412 296.021C202.412 293.886 202.328 292.292 202.162 291.251C202.005 290.209 201.771 289.516 201.453 289.167C201.146 288.808 200.75 288.626 200.266 288.626C199.641 288.626 198.87 288.808 197.953 289.167C197.047 289.516 196.13 289.782 195.203 289.959C194.797 289.959 194.542 289.74 194.432 289.292C194.318 288.849 194.266 288.599 194.266 288.542C194.266 288.542 194.641 288.448 195.391 288.251C196.151 288.058 196.958 287.87 197.807 287.688L198.537 287.48C199.063 286.855 199.662 286.058 200.328 285.084C200.995 284.115 201.583 282.928 202.099 281.521C202.609 280.12 202.87 278.511 202.87 276.688C202.87 274.204 202.651 272.48 202.224 271.521C201.807 270.563 201.307 270.011 200.724 269.855C200.151 269.704 199.578 269.626 198.995 269.626C198.646 269.626 198.203 269.724 197.662 269.917C197.13 270.115 196.224 270.636 194.932 271.48C194.443 273.355 193.854 275.474 193.162 277.834C192.479 280.183 191.755 282.579 190.995 285.021C190.245 287.469 189.521 289.761 188.828 291.896C188.146 294.021 187.537 295.792 186.995 297.209C186.38 298.907 185.63 300.636 184.745 302.396C183.854 304.146 182.896 305.766 181.87 307.251C180.839 308.74 179.787 309.938 178.703 310.855C177.62 311.761 176.542 312.209 175.474 312.209C174.714 312.209 174.141 311.959 173.766 311.459C173.391 310.948 173.151 310.355 173.037 309.688C172.927 309.021 172.87 308.448 172.87 307.959C172.87 307.641 172.984 306.73 173.203 305.23C173.427 303.719 173.839 301.792 174.432 299.459C175.026 297.126 175.88 294.573 176.995 291.792C178.104 289.016 179.547 286.219 181.328 283.396C183.104 280.563 185.307 277.928 187.932 275.48C188.599 273.48 189.214 271.646 189.787 269.98C190.37 268.313 190.88 266.948 191.328 265.876ZM174.995 310.626C175.396 310.626 175.917 309.974 176.557 308.667C177.208 307.349 177.943 305.573 178.766 303.334C179.583 301.084 180.458 298.558 181.391 295.751C182.333 292.948 183.271 290.073 184.203 287.126C185.13 284.167 186.042 281.308 186.932 278.542C185.375 280.24 183.932 282.209 182.599 284.459C181.266 286.698 180.063 289.037 178.995 291.48C177.938 293.928 177.042 296.292 176.307 298.584C175.568 300.876 175 302.912 174.599 304.688C174.198 306.469 173.995 307.823 173.995 308.751C173.995 310.001 174.328 310.626 174.995 310.626Z" fill="white"/>
<path d="M235.66 288.209C235.66 288.573 235.535 289.287 235.285 290.355C235.045 291.428 234.743 292.667 234.368 294.084C233.993 295.501 233.608 296.928 233.222 298.355C232.847 299.771 232.499 301.037 232.181 302.146C231.874 303.261 231.681 304.058 231.597 304.542C231.556 304.724 231.535 304.928 231.535 305.146C231.535 305.37 231.535 305.615 231.535 305.876C231.535 306.865 231.644 307.891 231.868 308.959C232.087 310.016 232.535 310.542 233.202 310.542C233.868 310.542 234.499 310.323 235.097 309.876C235.691 309.433 236.222 308.933 236.681 308.376C237.15 307.823 237.519 307.323 237.785 306.876C238.061 306.433 238.202 306.209 238.202 306.209C238.202 306.209 238.311 306.266 238.535 306.376C238.754 306.49 238.868 306.615 238.868 306.751C238.868 306.974 238.608 307.495 238.097 308.313C237.582 309.136 236.858 309.912 235.931 310.646C234.999 311.386 233.91 311.751 232.66 311.751C230.478 311.751 228.941 310.99 228.056 309.459C227.165 307.917 226.722 306.167 226.722 304.209C226.722 303.99 226.722 303.766 226.722 303.542C226.722 303.323 226.749 303.126 226.806 302.959C225.597 304.417 224.269 305.813 222.827 307.146C221.379 308.48 219.972 309.584 218.597 310.459C217.222 311.323 216.066 311.751 215.139 311.751C214.29 311.751 213.608 311.542 213.097 311.126C212.582 310.698 212.202 310.204 211.952 309.646C211.717 309.094 211.566 308.605 211.493 308.188C211.426 307.761 211.389 307.542 211.389 307.542C211.389 307.542 211.368 307.412 211.327 307.146C211.285 306.886 211.264 306.532 211.264 306.084C211.264 305.115 211.483 303.724 211.91 301.917C212.327 300.115 213.29 298.126 214.806 295.959C216.222 293.907 217.749 292.188 219.389 290.813C221.04 289.438 222.618 288.396 224.118 287.688C225.629 286.98 226.9 286.626 227.931 286.626C228.597 286.626 229.139 286.782 229.556 287.084C229.983 287.391 230.311 287.745 230.535 288.146C230.66 287.704 230.764 287.37 230.847 287.146C230.941 286.928 231.16 286.787 231.493 286.73C231.827 286.662 232.457 286.626 233.389 286.626C233.972 286.626 234.493 286.74 234.952 286.959C235.42 287.183 235.66 287.599 235.66 288.209ZM218.597 308.688C219.181 308.688 219.858 308.37 220.639 307.73C221.415 307.079 222.222 306.266 223.056 305.292C223.9 304.308 224.702 303.313 225.452 302.313C226.212 301.313 226.837 300.459 227.327 299.751L229.535 291.626C229.535 291.308 229.577 290.954 229.66 290.563C229.754 290.162 229.806 289.782 229.806 289.417C229.806 289.016 229.681 288.678 229.431 288.396C229.181 288.105 228.66 287.959 227.868 287.959C226.712 287.959 225.472 288.37 224.139 289.188C222.806 290.011 221.582 291.032 220.472 292.251C219.358 293.474 218.514 294.709 217.931 295.959C217.181 297.683 216.66 299.433 216.368 301.209C216.077 302.99 215.931 304.349 215.931 305.292C215.931 306.183 216.118 306.974 216.493 307.667C216.868 308.349 217.566 308.688 218.597 308.688Z" fill="white"/>
<path d="M237.797 282.876C237.797 282.876 238.506 282.849 239.922 282.792C241.35 282.724 243.037 282.667 244.985 282.626C245.303 281.115 245.579 279.87 245.818 278.896C246.068 277.912 246.214 277.396 246.256 277.355C246.433 277.261 246.839 277.183 247.464 277.126C248.089 277.058 248.735 277.021 249.402 277.021C249.969 277.021 250.475 277.058 250.922 277.126C251.365 277.183 251.589 277.303 251.589 277.48C251.589 277.704 251.495 278.271 251.318 279.188C251.152 280.094 250.886 281.209 250.527 282.542C252.219 282.542 253.719 282.573 255.027 282.626C256.329 282.667 256.985 282.974 256.985 283.542C256.985 283.599 256.969 283.667 256.943 283.751C256.928 283.834 256.922 283.907 256.922 283.959C256.881 283.907 256.641 283.87 256.214 283.855C255.797 283.829 254.969 283.813 253.735 283.813H250.256C249.808 285.771 249.308 287.954 248.756 290.355C248.198 292.761 247.678 295.167 247.193 297.584C246.704 300.001 246.297 302.24 245.964 304.292C245.631 306.334 245.464 307.974 245.464 309.209C245.464 309.532 245.506 309.823 245.589 310.084C245.683 310.349 245.844 310.48 246.068 310.48C246.86 310.48 247.683 310.204 248.547 309.646C249.422 309.094 250.245 308.438 251.027 307.688C251.803 306.928 252.433 306.245 252.922 305.646C253.407 305.053 253.698 304.709 253.797 304.626C253.881 304.573 253.964 304.688 254.047 304.98C254.141 305.271 254.193 305.511 254.193 305.688V305.751C252.594 308.058 251.006 309.636 249.422 310.48C247.85 311.329 246.573 311.751 245.589 311.751C245.016 311.751 244.407 311.532 243.756 311.084C243.115 310.641 242.573 309.886 242.131 308.813C241.683 307.745 241.464 306.261 241.464 304.355C241.464 303.594 241.558 302.433 241.756 300.876C241.964 299.323 242.235 297.573 242.568 295.626C242.902 293.667 243.256 291.667 243.631 289.626C244.006 287.573 244.37 285.683 244.735 283.959C243.745 284.001 242.756 284.042 241.756 284.084C240.756 284.126 239.61 284.167 238.318 284.209C237.792 284.209 237.527 284.037 237.527 283.688C237.527 283.511 237.579 283.329 237.672 283.146C237.756 282.969 237.797 282.876 237.797 282.876Z" fill="white"/>
<path d="M268.116 286.959V287.021C268.116 287.204 267.871 287.865 267.386 289.001C266.897 290.126 266.303 291.521 265.595 293.188C264.886 294.855 264.163 296.657 263.428 298.584C262.689 300.516 262.079 302.417 261.595 304.292C261.105 306.157 260.866 307.792 260.866 309.209C260.866 309.532 260.892 309.823 260.949 310.084C261.017 310.35 261.183 310.48 261.449 310.48C262.517 310.48 263.553 310.162 264.553 309.521C265.553 308.87 266.392 308.188 267.074 307.48C267.767 306.771 268.183 306.35 268.324 306.209C268.366 306.167 268.449 306.292 268.574 306.584C268.709 306.876 268.782 307.115 268.782 307.292C268.782 307.334 268.767 307.37 268.741 307.396C268.725 307.412 268.72 307.417 268.72 307.417C266.939 309.198 265.449 310.365 264.241 310.917C263.043 311.475 261.939 311.751 260.928 311.751C259.72 311.751 258.647 311.23 257.72 310.188C256.788 309.146 256.324 307.204 256.324 304.355C256.324 303.37 256.511 302.167 256.886 300.751C257.261 299.334 257.725 297.834 258.282 296.251C258.834 294.667 259.392 293.183 259.949 291.792C260.501 290.391 260.991 289.245 261.407 288.355C261.834 287.469 262.1 287.001 262.199 286.959C262.418 286.865 262.871 286.787 263.553 286.73C264.246 286.662 264.949 286.626 265.657 286.626C266.991 286.626 267.808 286.74 268.116 286.959ZM267.928 278.48C268.496 278.48 268.991 278.626 269.407 278.917C269.834 279.209 270.053 279.73 270.053 280.48C270.053 281.188 269.663 281.849 268.886 282.459C268.105 283.058 267.272 283.355 266.386 283.355C266.038 283.355 265.663 283.157 265.261 282.751C264.855 282.349 264.657 281.865 264.657 281.292C264.657 280.667 264.866 280.146 265.282 279.73C265.709 279.303 266.178 278.99 266.678 278.792C267.189 278.584 267.605 278.48 267.928 278.48Z" fill="white"/>
<path d="M278.451 269.876C278.586 269.709 278.909 269.584 279.409 269.501C279.92 269.407 280.472 269.355 281.055 269.355C281.722 269.355 282.284 269.412 282.743 269.521C283.211 269.636 283.451 269.933 283.451 270.417C283.451 271.042 283.347 272.157 283.138 273.751C282.941 275.349 282.68 277.261 282.347 279.48C282.013 281.704 281.638 284.084 281.222 286.626C280.805 289.157 280.347 291.662 279.847 294.146C280.831 292.954 281.878 291.782 282.993 290.626C284.102 289.459 285.18 288.501 286.222 287.751C287.263 287.001 288.206 286.626 289.055 286.626C290.388 286.626 291.185 286.974 291.451 287.667C291.711 288.349 291.847 289.001 291.847 289.626C291.847 290.292 291.566 291.167 291.013 292.251C290.456 293.334 289.555 294.469 288.305 295.646C287.066 296.829 285.388 297.907 283.263 298.876C284.763 299.282 286.102 300.084 287.284 301.292C288.461 302.49 289.503 303.771 290.409 305.146C291.326 306.521 292.102 307.704 292.743 308.688C293.394 309.662 293.941 310.146 294.388 310.146C295.097 310.146 295.649 309.907 296.055 309.417C296.456 308.933 296.769 308.433 296.993 307.917C297.211 307.407 297.326 307.146 297.326 307.146C297.451 307.146 297.638 307.219 297.888 307.355C298.138 307.48 298.263 307.542 298.263 307.542C298.263 307.542 298.097 307.907 297.763 308.626C297.43 309.334 296.935 310.037 296.284 310.73C295.644 311.412 294.857 311.751 293.93 311.751C292.597 311.751 291.618 311.698 290.993 311.584C290.368 311.474 289.743 311.157 289.118 310.626C288.81 310.349 288.274 309.709 287.513 308.709C286.763 307.709 285.888 306.599 284.888 305.376C283.888 304.157 282.888 303.079 281.888 302.146C280.888 301.219 279.982 300.73 279.18 300.688H278.659C278.118 303.219 277.623 305.365 277.18 307.126C276.732 308.876 276.378 309.933 276.118 310.292C275.586 310.959 274.909 311.386 274.076 311.563C273.253 311.73 272.602 311.813 272.118 311.813C271.894 311.813 271.711 311.808 271.576 311.792C271.451 311.766 271.388 311.751 271.388 311.751L278.451 269.876ZM283.055 292.292C282.472 292.907 281.831 293.709 281.138 294.709C280.456 295.709 279.831 296.657 279.263 297.542L279.055 298.417C280.43 297.751 281.873 296.938 283.388 295.98C284.899 295.021 286.18 293.959 287.222 292.792C288.263 291.615 288.784 290.376 288.784 289.084C288.784 288.459 288.581 288.146 288.18 288.146C287.789 288.146 287.289 288.386 286.68 288.855C286.081 289.313 285.451 289.87 284.784 290.521C284.118 291.162 283.539 291.751 283.055 292.292Z" fill="white"/>
<path d="M318.522 288.417V293.876C318.522 295.792 318.522 297.73 318.522 299.688C318.522 301.646 318.543 303.448 318.584 305.084C318.626 306.724 318.72 308.058 318.876 309.084C319.043 310.115 319.277 310.626 319.584 310.626C320.47 310.626 321.272 310.292 321.98 309.626C322.688 308.959 323.251 308.292 323.668 307.626C324.095 306.959 324.313 306.626 324.313 306.626C324.313 306.626 324.444 306.667 324.709 306.751C324.985 306.834 325.126 306.948 325.126 307.084C325.126 307.349 324.865 307.865 324.355 308.626C323.839 309.376 323.136 310.084 322.251 310.751C321.36 311.417 320.339 311.751 319.188 311.751C317.631 311.751 316.418 311.303 315.543 310.396C314.678 309.48 314.063 308.303 313.688 306.855C313.313 305.412 313.089 303.912 313.022 302.355C312.949 300.803 312.918 299.376 312.918 298.084C312.251 300.167 311.449 302.282 310.522 304.417C309.589 306.558 308.595 308.329 307.543 309.73C306.501 311.12 305.423 311.813 304.313 311.813C303.339 311.813 302.49 311.37 301.772 310.48C301.063 309.594 300.522 308.537 300.147 307.313C299.772 306.094 299.584 304.974 299.584 303.959C299.584 303.292 299.605 302.292 299.647 300.959C299.688 299.626 299.74 298.167 299.813 296.584C299.881 295.001 299.959 293.469 300.043 291.98C300.136 290.495 300.251 289.271 300.376 288.313C300.511 287.355 300.652 286.855 300.793 286.813C300.918 286.813 301.235 286.792 301.751 286.751C302.261 286.709 302.803 286.688 303.376 286.688C304.001 286.688 304.569 286.74 305.084 286.834C305.595 286.917 305.855 287.073 305.855 287.292C305.855 287.516 305.803 288.183 305.709 289.292C305.626 290.407 305.532 291.782 305.438 293.417C305.355 295.058 305.261 296.782 305.168 298.584C305.084 300.391 305.043 302.073 305.043 303.626C305.043 305.266 305.11 306.657 305.251 307.792C305.386 308.917 305.631 309.48 305.98 309.48C306.298 309.521 306.735 308.99 307.293 307.876C307.845 306.766 308.464 305.334 309.147 303.584C309.839 301.834 310.527 299.98 311.209 298.021C311.902 296.063 312.511 294.266 313.043 292.626C313.043 292.349 313.043 292.094 313.043 291.855C313.043 291.605 313.043 291.391 313.043 291.209C313.043 290.599 313.043 290.058 313.043 289.584C313.043 289.115 313.043 288.724 313.043 288.417C313.043 287.532 313.136 287.011 313.334 286.855C313.543 286.704 314.048 286.626 314.855 286.626C315.605 286.626 316.402 286.719 317.251 286.896C318.095 287.063 318.522 287.573 318.522 288.417Z" fill="white"/>
</svg>
